<svg width="2087" height="2288" viewBox="0 0 2087 2288" fill="none" xmlns="http://www.w3.org/2000/svg">
<path d="M426.988 1832.27C308.022 1739.31 211.665 1620.59 145.159 1485.02C78.6543 1349.46 43.7312 1200.57 43.0153 1049.56C40.0187 507.041 477.217 56.056 1019.38 43.2902C1229.46 38.2295 1435.81 99.4744 1609.15 218.337C1782.49 337.201 1914.01 507.647 1985.07 705.499C2056.13 903.35 2063.11 1118.56 2005.02 1320.61C1946.94 1522.65 1826.74 1701.27 1661.47 1831.13C1625.06 1859.34 1595.55 1895.46 1575.16 1936.77C1554.77 1978.07 1544.03 2023.47 1543.75 2069.54L1543.75 2144.91C1543.75 2171.46 1533.21 2196.91 1514.45 2215.68C1495.68 2234.45 1470.24 2245 1443.7 2245H643.298C616.763 2245 591.315 2234.46 572.552 2215.68C553.789 2196.91 543.248 2171.46 543.248 2144.91L543.247 2069.45C543.133 2023.68 532.606 1978.54 512.463 1937.45C492.32 1896.35 463.09 1860.38 426.988 1832.27Z" stroke="black" stroke-opacity="0.06" stroke-width="85" stroke-linecap="round" stroke-linejoin="round"/>
<path d="M1145 453C1267.55 473.814 1380.61 532.135 1468.56 619.908C1556.51 707.681 1615.02 820.576 1636 943" stroke="black" stroke-opacity="0.06" stroke-width="85" stroke-linecap="round" stroke-linejoin="round"/>
</svg>
