<svg width="704" height="302" viewBox="0 0 704 302" fill="none" xmlns="http://www.w3.org/2000/svg">
<g clip-path="url(#clip0)">
<path d="M154.523 168.479C154.53 167.552 154.345 166.634 153.982 165.781C153.618 164.929 153.082 164.161 152.409 163.525C151.735 162.889 150.938 162.399 150.067 162.086C149.196 161.772 148.27 161.642 147.346 161.703C146.423 161.764 145.522 162.015 144.7 162.441C143.877 162.866 143.151 163.457 142.567 164.176C141.983 164.895 141.553 165.727 141.305 166.62C141.056 167.513 140.994 168.447 141.122 169.365L121.776 194.737C120.951 196.39 120.631 198.251 120.856 200.085C121.082 201.92 121.843 203.647 123.044 205.051L124.562 206.824L131.524 205.429L139.416 198.456L138.487 190.553L148.236 175.211L148.223 175.2C149.929 175.091 151.53 174.336 152.701 173.087C153.871 171.839 154.523 170.191 154.523 168.479Z" fill="#FFB9B9"/>
<path d="M20.7448 292.516L17.5869 280.77L61.3205 262.984L65.981 280.319L20.7448 292.516Z" fill="#FFB8B8"/>
<path d="M10.1815 298.577L0 260.705L0.478301 260.576C4.38193 259.523 8.54314 260.067 12.0466 262.087C15.5501 264.107 18.109 267.438 19.1603 271.347L19.1606 271.348L25.379 294.479L10.1815 298.577Z" fill="#2F2E41"/>
<path d="M80.9859 290.639L71.1636 283.486L94.042 242.137L108.539 252.695L80.9859 290.639Z" fill="#FFB8B8"/>
<path d="M76.5667 302L44.894 278.932L45.1854 278.531C47.5631 275.257 51.1422 273.062 55.1353 272.431C59.1284 271.799 63.2085 272.782 66.4782 275.163L66.479 275.163L85.8235 289.252L76.5667 302Z" fill="#2F2E41"/>
<path d="M164.483 232.858L139.764 208.81C137.607 206.711 134.766 205.463 131.763 205.295C128.76 205.127 125.798 206.05 123.42 207.895L76.749 259.822L80.9269 266.33L125.49 236.112L155.663 275.628L184.443 261.217L164.483 232.858Z" fill="#2F2E41"/>
<path d="M153.806 237.972L135.702 236.577L122.591 233.394C121.851 232.237 120.775 231.334 119.508 230.806C118.241 230.278 116.843 230.151 115.502 230.44C114.16 230.73 112.939 231.424 112.002 232.427C111.065 233.431 110.456 234.698 110.258 236.058C110.059 237.418 110.28 238.806 110.891 240.037C111.502 241.267 112.474 242.282 113.677 242.944C114.879 243.606 116.255 243.884 117.62 243.742C118.985 243.599 120.274 243.043 121.314 242.146L121.312 242.156L129.204 245.41L163.09 257.032L167.268 253.778L153.806 237.972Z" fill="#FFB9B9"/>
<path d="M197.441 288.181L187.228 294.689H175.159L118.991 273.769L36.8282 288.645L34.5073 270.979L109.708 237.972L175.624 259.822L197.441 288.181Z" fill="#2F2E41"/>
<path d="M175.623 175.211C185.622 175.211 193.727 167.094 193.727 157.08C193.727 147.067 185.622 138.949 175.623 138.949C165.625 138.949 157.52 147.067 157.52 157.08C157.52 167.094 165.625 175.211 175.623 175.211Z" fill="#FFB9B9"/>
<path d="M222.466 229.469C222.465 240.411 220.744 251.285 217.364 261.691L216.009 265.865L209.51 295.619L202.547 297.478L197.441 290.97L187.228 283.531L179.801 271.444L173.432 260.817L171.446 257.497L164.483 222.63L138.023 207.754L129.204 206.359L131.06 201.245L138.952 190.553L146.843 189.623L149.164 187.763L151.021 188.693L161.257 192.642L194.442 178.6L199.298 179.395L216.009 193.342C220.281 204.906 222.467 217.139 222.466 229.469Z" fill="#CCCCCC"/>
<path opacity="0.1" d="M217.401 225.42L199.761 237.042L173.432 260.816L171.446 257.497L165.875 229.604H167.268L181.658 203.105L217.401 225.42Z" fill="black"/>
<path d="M181.659 200.315L167.268 226.814L158.913 236.112L151.486 237.972L171.446 259.822L199.762 234.253L217.401 222.63L181.659 200.315Z" fill="#CCCCCC"/>
<path d="M161.543 143.599L159.581 144.355C159.283 144.153 159.028 143.894 158.83 143.594C158.632 143.293 158.495 142.956 158.428 142.603C158.36 142.249 158.362 141.885 158.434 141.533C158.506 141.18 158.647 140.845 158.849 140.547C158.86 140.531 158.87 140.515 158.881 140.5L155.256 140.33C157.583 137.227 160.542 134.653 163.936 132.78C167.33 130.907 171.083 129.777 174.946 129.466C178.808 129.154 182.693 129.667 186.343 130.971C189.993 132.276 193.325 134.341 196.118 137.032C196.283 136.462 198.082 137.57 198.817 138.693C199.064 137.767 200.75 142.244 201.347 145.409C201.623 144.356 202.685 146.057 201.755 147.689C202.344 147.603 202.611 149.114 202.154 149.955C202.799 149.652 202.69 151.455 201.991 152.66C202.911 152.578 201.913 171.562 188.102 170.179C187.14 165.754 187.411 166.029 186.279 160.34C185.752 159.78 185.175 159.269 184.599 158.76L181.483 156.005C177.859 152.802 174.563 148.849 169.736 147.651C166.419 146.829 164.321 146.643 166.129 142.899C164.495 143.582 162.97 144.597 161.322 145.231C161.344 144.708 161.575 144.123 161.543 143.599Z" fill="#2F2E41"/>
<path d="M184.675 162.427C186.47 162.427 187.925 160.97 187.925 159.172C187.925 157.375 186.47 155.918 184.675 155.918C182.881 155.918 181.426 157.375 181.426 159.172C181.426 160.97 182.881 162.427 184.675 162.427Z" fill="#FFB9B9"/>
<path d="M33.1444 82.3135L32.1528 97.2256L47.0426 98.2187L48.0342 83.3066L33.1444 82.3135Z" fill="#27B087"/>
<path d="M23.5376 90.2318L41.618 91.4377L40.4139 109.545L22.3335 108.339L23.5376 90.2318ZM40.7796 92.1726L24.2713 91.0715L23.172 107.604L39.6802 108.705L40.7796 92.1726Z" fill="#CCCCCC"/>
<path d="M117.289 38.0948L102.699 41.2344L105.834 55.846L120.424 52.7064L117.289 38.0948Z" fill="#27B087"/>
<path d="M107.049 31.0175L110.855 48.7601L93.1392 52.5725L89.3325 34.8298L107.049 31.0175ZM109.92 48.1544L106.444 31.9546L90.2683 35.4355L93.7439 51.6353L109.92 48.1544Z" fill="#CCCCCC"/>
<path d="M101.959 108.265L91.0674 118.482L101.269 129.389L112.16 119.172L101.959 108.265Z" fill="#27B087"/>
<path d="M112.943 106.737L99.7181 119.143L87.3306 105.898L100.556 93.4917L112.943 106.737ZM99.7545 118.027L111.829 106.7L100.519 94.607L88.4441 105.934L99.7545 118.027Z" fill="#CCCCCC"/>
<path d="M665.187 0H223.664C222.068 -1.81638e-06 220.488 0.314803 219.013 0.92644C217.539 1.53808 216.199 2.43456 215.071 3.56472C213.942 4.69488 213.047 6.03658 212.436 7.51321C211.826 8.98983 211.511 10.5725 211.511 12.1708V258.548C211.511 260.146 211.826 261.729 212.436 263.205C213.047 264.682 213.942 266.024 215.071 267.154C216.199 268.284 217.539 269.18 219.013 269.792C220.488 270.404 222.068 270.718 223.664 270.718H665.187C668.41 270.718 671.501 269.436 673.78 267.154C676.059 264.871 677.339 261.776 677.339 258.548V12.1708C677.339 8.94287 676.059 5.8472 673.78 3.56474C671.501 1.28228 668.41 1.83418e-06 665.187 0Z" fill="#3F3D56"/>
<path d="M661.046 21.5092H227.804V266.268H661.046V21.5092Z" fill="white"/>
<path d="M444.055 14.8339C446.509 14.8339 448.498 12.8415 448.498 10.3838C448.498 7.926 446.509 5.93359 444.055 5.93359C441.601 5.93359 439.611 7.926 439.611 10.3838C439.611 12.8415 441.601 14.8339 444.055 14.8339Z" fill="white"/>
<path d="M537.146 266.269H227.804V21.5095L537.146 266.269Z" fill="#6147FF" fill-opacity="0.14"/>
<path d="M295.593 247.953C318.593 247.953 337.238 229.28 337.238 206.246C337.238 183.212 318.593 164.539 295.593 164.539C272.594 164.539 253.949 183.212 253.949 206.246C253.949 229.28 272.594 247.953 295.593 247.953Z" fill="#27B087"/>
<path d="M304.864 237.593C294.618 237.593 284.603 234.55 276.084 228.849C267.566 223.149 260.926 215.046 257.005 205.567C253.084 196.087 252.059 185.656 254.057 175.592C256.056 165.528 260.99 156.284 268.234 149.029C275.479 141.774 284.709 136.833 294.758 134.831C304.806 132.829 315.222 133.856 324.688 137.783C334.153 141.71 342.243 148.359 347.935 156.891C353.627 165.422 356.666 175.453 356.666 185.713C356.666 192.526 355.326 199.272 352.722 205.567C350.119 211.861 346.303 217.58 341.493 222.398C336.683 227.215 330.972 231.036 324.687 233.644C318.403 236.251 311.667 237.593 304.864 237.593ZM304.864 134.512C294.752 134.512 284.868 137.515 276.46 143.141C268.053 148.767 261.5 156.764 257.631 166.119C253.761 175.475 252.749 185.77 254.721 195.702C256.694 205.634 261.563 214.757 268.713 221.918C275.863 229.079 284.973 233.955 294.89 235.931C304.807 237.906 315.087 236.892 324.428 233.017C333.77 229.142 341.755 222.579 347.372 214.159C352.99 205.739 355.988 195.84 355.988 185.713C355.988 178.989 354.666 172.331 352.097 166.119C349.528 159.907 345.762 154.263 341.014 149.509C336.267 144.754 330.631 140.983 324.428 138.41C318.226 135.836 311.578 134.512 304.864 134.512L304.864 134.512Z" fill="#3F3D56"/>
<path d="M560.752 148.669H520.282V157.138H560.752V148.669Z" fill="#3F3D56"/>
<path d="M599.04 102.787H481.994V106.417H599.04V102.787Z" fill="#3F3D56"/>
<path d="M599.04 117.047H481.994V120.677H599.04V117.047Z" fill="#3F3D56"/>
<path d="M599.04 131.307H481.994V134.937H599.04V131.307Z" fill="#3F3D56"/>
<path d="M630.394 36.157H613.481V53.095H630.394V36.157Z" fill="#27B087"/>
<path d="M638.246 60.9589H617.709V40.3914H638.246V60.9589ZM618.602 60.0647H637.353V41.2856H618.602L618.602 60.0647Z" fill="#CCCCCC"/>
<path d="M689.504 261.818H647.222V258.767C647.222 258.688 647.206 258.609 647.176 258.536C647.146 258.462 647.101 258.396 647.045 258.339C646.989 258.283 646.922 258.239 646.849 258.208C646.776 258.178 646.697 258.162 646.618 258.162H632.121C632.042 258.162 631.963 258.178 631.89 258.208C631.817 258.239 631.75 258.283 631.694 258.339C631.638 258.396 631.594 258.462 631.563 258.536C631.533 258.609 631.517 258.688 631.517 258.767V261.818H622.457V258.767C622.457 258.688 622.441 258.609 622.411 258.536C622.381 258.462 622.336 258.396 622.28 258.339C622.224 258.283 622.157 258.239 622.084 258.208C622.011 258.178 621.932 258.162 621.853 258.162H607.356C607.277 258.162 607.199 258.178 607.125 258.208C607.052 258.239 606.985 258.283 606.929 258.339C606.873 258.396 606.829 258.462 606.798 258.536C606.768 258.609 606.752 258.688 606.752 258.767V261.818H597.692V258.767C597.692 258.688 597.676 258.609 597.646 258.536C597.616 258.462 597.571 258.396 597.515 258.339C597.459 258.283 597.392 258.239 597.319 258.208C597.246 258.178 597.167 258.162 597.088 258.162H582.591C582.512 258.162 582.434 258.178 582.36 258.208C582.287 258.239 582.22 258.283 582.164 258.339C582.108 258.396 582.064 258.462 582.033 258.536C582.003 258.609 581.987 258.688 581.987 258.767V261.818H572.927V258.767C572.927 258.688 572.911 258.609 572.881 258.536C572.851 258.462 572.806 258.396 572.75 258.339C572.694 258.283 572.628 258.239 572.554 258.208C572.481 258.178 572.402 258.162 572.323 258.162H557.827C557.747 258.162 557.669 258.178 557.595 258.208C557.522 258.239 557.456 258.283 557.399 258.339C557.343 258.396 557.299 258.462 557.269 258.536C557.238 258.609 557.223 258.688 557.223 258.767V261.818H548.162V258.767C548.162 258.688 548.147 258.609 548.116 258.536C548.086 258.462 548.041 258.396 547.985 258.339C547.929 258.283 547.863 258.239 547.789 258.208C547.716 258.178 547.638 258.162 547.558 258.162H533.062C532.982 258.162 532.904 258.178 532.83 258.208C532.757 258.239 532.691 258.283 532.634 258.339C532.578 258.396 532.534 258.462 532.504 258.536C532.473 258.609 532.458 258.688 532.458 258.767V261.818H523.397V258.767C523.397 258.688 523.382 258.609 523.351 258.536C523.321 258.462 523.276 258.396 523.22 258.339C523.164 258.283 523.098 258.239 523.024 258.208C522.951 258.178 522.873 258.162 522.793 258.162H508.297C508.217 258.162 508.139 258.178 508.065 258.208C507.992 258.239 507.926 258.283 507.87 258.339C507.813 258.396 507.769 258.462 507.739 258.536C507.708 258.609 507.693 258.688 507.693 258.767V261.818H498.632V258.767C498.632 258.688 498.617 258.609 498.586 258.536C498.556 258.462 498.511 258.396 498.455 258.339C498.399 258.283 498.333 258.239 498.259 258.208C498.186 258.178 498.108 258.162 498.028 258.162H384.472C384.393 258.162 384.314 258.178 384.241 258.208C384.167 258.239 384.101 258.283 384.045 258.339C383.989 258.396 383.944 258.462 383.914 258.536C383.883 258.609 383.868 258.688 383.868 258.767V261.818H374.808V258.767C374.808 258.688 374.792 258.609 374.762 258.536C374.731 258.462 374.687 258.396 374.631 258.339C374.575 258.283 374.508 258.239 374.435 258.208C374.361 258.178 374.283 258.162 374.204 258.162H359.707C359.628 258.162 359.549 258.178 359.476 258.208C359.403 258.239 359.336 258.283 359.28 258.339C359.224 258.396 359.179 258.462 359.149 258.536C359.119 258.609 359.103 258.688 359.103 258.767V261.818H350.043V258.767C350.043 258.688 350.027 258.609 349.997 258.536C349.966 258.462 349.922 258.396 349.866 258.339C349.81 258.283 349.743 258.239 349.67 258.208C349.597 258.178 349.518 258.162 349.439 258.162H334.942C334.863 258.162 334.784 258.178 334.711 258.208C334.638 258.239 334.571 258.283 334.515 258.339C334.459 258.396 334.414 258.462 334.384 258.536C334.354 258.609 334.338 258.688 334.338 258.767V261.818H325.278V258.767C325.278 258.688 325.262 258.609 325.232 258.536C325.201 258.462 325.157 258.396 325.101 258.339C325.045 258.283 324.978 258.239 324.905 258.208C324.831 258.178 324.753 258.162 324.674 258.162H310.177C310.098 258.162 310.019 258.178 309.946 258.208C309.873 258.239 309.806 258.283 309.75 258.339C309.694 258.396 309.649 258.462 309.619 258.536C309.589 258.609 309.573 258.688 309.573 258.767V261.818H300.513V258.767C300.513 258.688 300.497 258.609 300.467 258.536C300.436 258.462 300.392 258.396 300.336 258.339C300.28 258.283 300.213 258.239 300.14 258.208C300.067 258.178 299.988 258.162 299.909 258.162H285.412C285.333 258.162 285.254 258.178 285.181 258.208C285.108 258.239 285.041 258.283 284.985 258.339C284.929 258.396 284.884 258.462 284.854 258.536C284.824 258.609 284.808 258.688 284.808 258.767V261.818H275.748V258.767C275.748 258.688 275.732 258.609 275.702 258.536C275.671 258.462 275.627 258.396 275.571 258.339C275.515 258.283 275.448 258.239 275.375 258.208C275.302 258.178 275.223 258.162 275.144 258.162H260.647C260.487 258.162 260.333 258.226 260.22 258.339C260.107 258.453 260.043 258.607 260.043 258.767V261.818H250.983V258.767C250.983 258.688 250.967 258.609 250.937 258.536C250.906 258.462 250.862 258.396 250.806 258.339C250.75 258.283 250.683 258.239 250.61 258.208C250.537 258.178 250.458 258.162 250.379 258.162H235.882C235.722 258.162 235.568 258.226 235.455 258.339C235.342 258.453 235.278 258.607 235.278 258.767V261.818H207.493C203.648 261.818 199.961 263.348 197.243 266.07C194.524 268.793 192.997 272.486 192.997 276.336V282.901C192.997 286.752 194.524 290.444 197.243 293.167C199.961 295.89 203.648 297.419 207.493 297.419H689.504C693.348 297.419 697.035 295.89 699.754 293.167C702.473 290.444 704 286.752 704 282.901V276.336C704 274.43 703.625 272.542 702.897 270.78C702.168 269.019 701.1 267.419 699.754 266.07C698.408 264.722 696.81 263.653 695.051 262.923C693.292 262.194 691.407 261.818 689.504 261.818Z" fill="#3F3D56"/>
</g>
<defs>
<clipPath id="clip0">
<rect width="704" height="302" fill="white"/>
</clipPath>
</defs>
</svg>
