<svg width="1770" height="626" viewBox="0 0 1770 626" fill="none" xmlns="http://www.w3.org/2000/svg">
<rect x="337.496" y="118.396" width="118.396" height="28.5783" rx="14.2891" transform="rotate(-90 337.496 118.396)" fill="#FF9900"/>
<path d="M278.978 583.813H424.421" stroke="#6147FF" stroke-width="29.9391" stroke-linecap="round" stroke-linejoin="round"/>
<line x1="803.822" y1="560.057" x2="803.822" y2="64.5002" stroke="#848484" stroke-width="13.6087" stroke-linecap="round" stroke-linejoin="round"/>
<rect x="583.813" y="336.135" width="118.396" height="28.5783" rx="14.2891" fill="#FF9900"/>
<rect y="336.135" width="118.396" height="28.5783" rx="14.2891" fill="#FF9900"/>
<rect x="636.026" y="86.8905" width="118.396" height="28.5783" rx="14.2891" transform="rotate(135 636.026 86.8905)" fill="#FF9900"/>
<rect x="150.401" y="170.609" width="118.396" height="28.5783" rx="14.2891" transform="rotate(-135 150.401 170.609)" fill="#FF9900"/>
<path d="M365.871 221.631C383.661 224.655 400.073 233.128 412.84 245.88C425.608 258.631 434.101 275.033 437.147 292.819" stroke="#FF9900" stroke-width="29.9391" stroke-linecap="round" stroke-linejoin="round"/>
<path d="M261.482 422.028C244.188 408.521 230.18 391.269 220.512 371.57C210.844 351.871 205.768 330.236 205.664 308.292C205.228 229.458 268.784 163.925 347.597 162.07C378.138 161.334 408.135 170.234 433.333 187.506C458.531 204.778 477.651 229.546 487.98 258.296C498.31 287.046 499.325 318.319 490.881 347.678C482.437 377.038 464.963 402.993 440.938 421.862C435.647 425.962 431.356 431.212 428.392 437.213C425.427 443.215 423.866 449.813 423.826 456.507L423.826 467.459C423.826 471.316 422.294 475.016 419.566 477.743C416.838 480.471 413.139 482.003 409.282 482.003H292.927C289.07 482.003 285.37 480.471 282.643 477.743C279.915 475.016 278.383 471.316 278.383 467.459L278.382 456.494C278.366 449.843 276.836 443.284 273.907 437.312C270.979 431.34 266.73 426.114 261.482 422.028Z" stroke="#6147FF" stroke-width="29.9391" stroke-linecap="round" stroke-linejoin="round"/>
<path d="M278.383 540.18H423.826" stroke="#6147FF" stroke-width="29.9391" stroke-linecap="round" stroke-linejoin="round"/>
<path d="M1122.98 257.54H1174.24C1167.72 210.351 1126.12 177.143 1072.17 177.143C1009.14 177.143 960.55 222.585 960.55 299.953C960.55 375.457 1005.99 422.297 1073.22 422.297C1133.46 422.297 1176.46 384.196 1176.46 321.392V291.331H1076.6V329.316H1127.87C1127.17 358.911 1107.01 377.671 1073.46 377.671C1035.59 377.671 1011.7 349.357 1011.7 299.487C1011.7 249.85 1036.52 221.769 1072.99 221.769C1098.97 221.769 1116.57 235.169 1122.98 257.54ZM1316.78 180.405H1269.35L1210.28 217.808V262.551L1264.93 228.294H1266.32V419.035H1316.78V180.405ZM1425.34 180.405H1374.89V419.035H1425.34V180.405ZM1551.44 419.035C1624.15 419.035 1668.2 374.059 1668.2 299.487C1668.2 225.148 1624.15 180.405 1552.14 180.405H1466.85V419.035H1551.44ZM1517.3 375.807V223.634H1549.46C1594.21 223.634 1617.86 246.471 1617.86 299.487C1617.86 352.736 1594.21 375.807 1549.35 375.807H1517.3Z" fill="#6147FF"/>
</svg>
